<mxfile host="app.diagrams.net" modified="2021-03-29T08:18:32.194Z" agent="5.0 (Macintosh; Intel Mac OS X 11_2_3) AppleWebKit/537.36 (KHTML, like Gecko) Chrome/89.0.4389.90 Safari/537.36" etag="ct4zPN6qOcHqI6KZjMUW" version="14.5.3" type="github">
  <diagram id="C5RBs43oDa-KdzZeNtuy" name="数据报送">
    <mxGraphModel dx="946" dy="646" grid="1" gridSize="10" guides="1" tooltips="1" connect="1" arrows="1" fold="1" page="1" pageScale="1" pageWidth="827" pageHeight="1169" math="0" shadow="0">
      <root>
        <mxCell id="WIyWlLk6GJQsqaUBKTNV-0" />
        <mxCell id="WIyWlLk6GJQsqaUBKTNV-1" parent="WIyWlLk6GJQsqaUBKTNV-0" />
        <mxCell id="RZsGq5OQt-czKsXhMypv-1" value="数据报送" style="swimlane;html=1;childLayout=stackLayout;resizeParent=1;resizeParentMax=0;startSize=20;" vertex="1" parent="WIyWlLk6GJQsqaUBKTNV-1">
          <mxGeometry x="170" y="80" width="410" height="480" as="geometry" />
        </mxCell>
        <mxCell id="RZsGq5OQt-czKsXhMypv-2" value="再保险管理系统" style="swimlane;html=1;startSize=20;" vertex="1" parent="RZsGq5OQt-czKsXhMypv-1">
          <mxGeometry y="20" width="210" height="460" as="geometry" />
        </mxCell>
        <mxCell id="RZsGq5OQt-czKsXhMypv-6" value="开始" style="ellipse;whiteSpace=wrap;html=1;" vertex="1" parent="RZsGq5OQt-czKsXhMypv-2">
          <mxGeometry x="65" y="30" width="80" height="40" as="geometry" />
        </mxCell>
        <mxCell id="RZsGq5OQt-czKsXhMypv-3" value="保单登记平台" style="swimlane;html=1;startSize=20;" vertex="1" parent="RZsGq5OQt-czKsXhMypv-1">
          <mxGeometry x="210" y="20" width="200" height="460" as="geometry" />
        </mxCell>
      </root>
    </mxGraphModel>
  </diagram>
</mxfile>
